#!OML:ASF Y:\EmotionMaleHayes\Project 1\Capture day 1\Session 1\Male1.ASF
:FULLY-SPECIFIED
:DEGREES
373
root 29.8366 16.1563 -0.863031 525.357 96.0907 530.181
lowerback 7.51685 4.21684 -0.356975
upperback 2.01382 5.60711 -1.23592
thorax -2.02584 2.82082 -1.58111
lowerneck -23.7743 -0.562487 1.86351
upperneck 21.8656 -1.61057 0.837774
head 10.9989 -0.423061 -0.254642
rclavicle -3.74709e-014 1.11319e-014
rhumerus -19.8956 10.0795 -83.1647
rradius 54.979
rwrist -11.6713
rhand -17.3756 -32.5916
rfingers 7.12502
rthumb 8.87286 -62.385
lclavicle -3.74709e-014 1.11319e-014
lhumerus -43.7872 14.3258 69.6816
lradius 14.6197
lwrist -46.2692
lhand -2.11811 -22.9745
lfingers 7.12502
lthumb 23.5601 5.60235
rfemur 20.6867 6.5552 20.114
rtibia 40.1511
rfoot -2.97173 -1.71094
rtoes 15.7416
lfemur -21.3566 6.5712 -16.2299
ltibia 27.5872
lfoot -3.70212 7.0637
ltoes 3.59137
374
root 30.0417 16.1662 -0.901913 532.43 95.7312 537.655
lowerback 7.83699 4.15786 -1.09231
upperback 2.09787 5.46899 -1.50585
thorax -2.1606 2.75681 -1.46299
lowerneck -23.6096 -0.5077 1.87113
upperneck 21.8649 -1.53207 0.846404
head 10.9686 -0.385557 -0.239367
rclavicle 1.39149e-014 -1.27222e-014
rhumerus -21.1615 10.0491 -83.668
rradius 55.128
rwrist -11.8598
rhand -17.2877 -32.7145
rfingers 7.12502
rthumb 8.95778 -62.5043
lclavicle 1.39149e-014 -1.27222e-014
lhumerus -42.8266 13.6688 70.6302
lradius 14.9593
lwrist -45.3402
lhand -3.01642 -23.0651
lfingers 7.12502
lthumb 22.6982 5.61995
rfemur 19.7955 6.43005 19.0353
rtibia 42.6799
rfoot -0.527631 -2.25754
rtoes 16.2897
lfemur -20.2996 6.24515 -17.4583
ltibia 27.7128
lfoot -4.1896 6.88976
ltoes 4.08667
375
root 30.2482 16.1806 -0.949211 541.424 94.8972 547.077
lowerback 8.16101 3.90462 -1.74074
upperback 2.21311 5.07704 -1.80113
thorax -2.25468 2.56772 -1.39073
lowerneck -23.6895 -0.497915 1.81093
upperneck 22.0164 -1.53037 0.963638
head 11.0418 -0.37083 -0.186769
rclavicle 2.8625e-014 1.51076e-014
rhumerus -22.3396 10.2118 -84.1429
rradius 55.0637
rwrist -12.1207
rhand -17.2436 -32.6362
rfingers 7.12502
rthumb 9.00031 -62.4242
lclavicle 2.8625e-014 1.51076e-014
lhumerus -41.8192 12.5639 71.9013
lradius 15.3682
lwrist -43.6499
lhand -3.33595 -22.7918
lfingers 7.12502
lthumb 22.3915 5.93049
rfemur 19.1521 5.77985 17.7881
rtibia 44.8299
rfoot 1.93748 -2.67197
rtoes 15.4819
lfemur -19.2468 5.49682 -18.9709
ltibia 27.9771
lfoot -4.74088 6.47398
ltoes 3.87269
376
root 30.4441 16.2009 -0.98564 551.703 95.0843 557.736
lowerback 8.42907 3.93585 -2.67419
upperback 2.30332 5.03739 -2.04893
thorax -2.36577 2.55498 -1.14345
lowerneck -23.6105 -0.497695 1.61565
upperneck 22.048 -1.50839 1.16043
head 11.0427 -0.350903 -0.0788046
rclavicle 1.02374e-014 1.27222e-014
rhumerus -23.3572 10.6488 -84.6433
rradius 54.6826
rwrist -12.5366
rhand -17.2873 -32.7282
rfingers 7.12502
rthumb 8.95812 -62.518
lclavicle 1.02374e-014 1.27222e-014
lhumerus -40.7906 11.7196 73.0475
lradius 15.6563
lwrist -42.1187
lhand -3.74801 -22.4879
lfingers 7.12502
lthumb 21.9959 6.28135
rfemur 18.2146 5.85198 16.5548
rtibia 47.0388
rfoot 4.56729 -3.1594
rtoes 14.594
lfemur -18.0457 5.39457 -20.2963
ltibia 27.9789
lfoot -5.17293 6.20151
ltoes -2.70196
377
root 30.6383 16.2235 -1.02332 564.122 95.4653 570.473
lowerback 8.56567 3.93249 -3.88796
upperback 2.4206 4.93312 -2.35928
thorax -2.39067 2.51198 -0.788301
lowerneck -22.878 -0.304316 1.41559
upperneck 21.3844 -1.21715 1.4564
head 10.6659 -0.21139 0.108677
rclavicle -3.58309e-014 1.03368e-014
rhumerus -24.3414 10.9627 -85.134
rradius 54.2609
rwrist -12.7847
rhand -17.0705 -32.8259
rfingers 7.12502
rthumb 9.1673 -62.6067
lclavicle -3.58309e-014 1.03368e-014
lhumerus -39.7259 10.7149 74.3236
lradius 16.0031
lwrist -40.4751
lhand -4.44908 -22.0982
lfingers 7.12502
lthumb 21.3227 6.74873
rfemur 17.191 5.77598 14.8736
rtibia 49.1545
rfoot 6.8101 -4.15415
rtoes 16.7935
lfemur -16.8587 5.05282 -21.9919
ltibia 27.7789
lfoot -5.89532 6.34814
ltoes -1.90643
